HIERARCHY
ROOT Hips
{
  OFFSET 5.84602e-005 68.8428 3.50346
  CHANNELS 6 Xposition Yposition Zposition Zrotation Xrotation Yrotation
  JOINT Spine
  {
    OFFSET 0 8.597 -4.6522
    CHANNELS 3 Zrotation Xrotation Yrotation
    JOINT Spine1
    {
      OFFSET 0 7.8454 0.4098
      CHANNELS 3 Zrotation Xrotation Yrotation
      JOINT Spine2
      {
        OFFSET 0 9.7078 -2.1609
        CHANNELS 3 Zrotation Xrotation Yrotation
        JOINT Neck
        {
          OFFSET 0 21.8761 -0.4549
          CHANNELS 3 Zrotation Xrotation Yrotation
          JOINT Head
          {
            OFFSET 0 12.3537 3.3602
            CHANNELS 3 Zrotation Xrotation Yrotation
            End Site
            {
              OFFSET 0.0001 18.9506 0.5657
            }
          }
        }
        JOINT LeftShoulder
        {
          OFFSET 2.2086 21.1115 7.2329
          CHANNELS 3 Zrotation Xrotation Yrotation
          JOINT LeftArm
          {
            OFFSET 13.1193 3.0282 -4.8998
            CHANNELS 3 Zrotation Xrotation Yrotation
            JOINT LeftForeArm
            {
              OFFSET 27.4081 -0.0973053 -0.2375
              CHANNELS 3 Zrotation Xrotation Yrotation
              JOINT LeftHand
              {
                OFFSET 22.8641 0.0662994 -0.1369
                CHANNELS 3 Zrotation Xrotation Yrotation
                JOINT LeftHandIndex1
                {
                  OFFSET 8.8614 0.775009 2.4612
                  CHANNELS 3 Zrotation Xrotation Yrotation
                  JOINT LeftHandIndex2
                  {
                    OFFSET 3.3146 -0.808304 0.5841
                    CHANNELS 3 Zrotation Xrotation Yrotation
                    JOINT LeftHandIndex3
                    {
                      OFFSET 2.2628 -0.552002 0.3989
                      CHANNELS 3 Zrotation Xrotation Yrotation
                      End Site
                      {
                        OFFSET 1.6102 -0.4807 0.2612
                      }
                    }
                  }
                }
                JOINT LeftHandMiddle1
                {
                  OFFSET 8.9937 0.895004 0.2143
                  CHANNELS 3 Zrotation Xrotation Yrotation
                  JOINT LeftHandMiddle2
                  {
                    OFFSET 4.0984 0.0113983 -0.0242
                    CHANNELS 3 Zrotation Xrotation Yrotation
                    JOINT LeftHandMiddle3
                    {
                      OFFSET 2.2716 0.00689697 -0.0138001
                      CHANNELS 3 Zrotation Xrotation Yrotation
                      End Site
                      {
                        OFFSET 2.0404 -0.1441 0.0027
                      }
                    }
                  }
                }
                JOINT LeftHandRing1
                {
                  OFFSET 8.5234 0.597198 -2.0164
                  CHANNELS 3 Zrotation Xrotation Yrotation
                  JOINT LeftHandRing2
                  {
                    OFFSET 3.7188 -0.188293 -0.2328
                    CHANNELS 3 Zrotation Xrotation Yrotation
                    JOINT LeftHandRing3
                    {
                      OFFSET 2.1191 -0.106598 -0.1332
                      CHANNELS 3 Zrotation Xrotation Yrotation
                      End Site
                      {
                        OFFSET 1.8737 -0.2304 -0.0886
                      }
                    }
                  }
                }
                JOINT LeftHandPinky1
                {
                  OFFSET 7.9094 -0.601089 -3.4825
                  CHANNELS 3 Zrotation Xrotation Yrotation
                  JOINT LeftHandPinky2
                  {
                    OFFSET 2.2874 -0.477005 -0.6314
                    CHANNELS 3 Zrotation Xrotation Yrotation
                    JOINT LeftHandPinky3
                    {
                      OFFSET 1.6774 -0.349396 -0.4633
                      CHANNELS 3 Zrotation Xrotation Yrotation
                      End Site
                      {
                        OFFSET 1.4888 -0.4091 -0.3416
                      }
                    }
                  }
                }
                JOINT LeftHandThumb1
                {
                  OFFSET 1.833 -1.3875 1.3896
                  CHANNELS 3 Zrotation Xrotation Yrotation
                  JOINT LeftHandThumb2
                  {
                    OFFSET 3.4129 -1.121 2.5732
                    CHANNELS 3 Zrotation Xrotation Yrotation
                    JOINT LeftHandThumb3
                    {
                      OFFSET 2.2474 -0.804199 1.6192
                      CHANNELS 3 Zrotation Xrotation Yrotation
                      End Site
                      {
                        OFFSET 1.6527 -0.5689 1.1317
                      }
                    }
                  }
                }
              }
            }
          }
        }
        JOINT RightShoulder
        {
          OFFSET -2.2086 21.1115 7.2329
          CHANNELS 3 Zrotation Xrotation Yrotation
          JOINT RightArm
          {
            OFFSET -13.1216 3.0287 -4.9007
            CHANNELS 3 Zrotation Xrotation Yrotation
            JOINT RightForeArm
            {
              OFFSET -27.4081 -0.0973053 -0.2375
              CHANNELS 3 Zrotation Xrotation Yrotation
              JOINT RightHand
              {
                OFFSET -22.8641 0.0664063 -0.1369
                CHANNELS 3 Zrotation Xrotation Yrotation
                JOINT RightHandIndex1
                {
                  OFFSET -8.8614 0.774994 2.4612
                  CHANNELS 3 Zrotation Xrotation Yrotation
                  JOINT RightHandIndex2
                  {
                    OFFSET -3.3146 -0.808304 0.5841
                    CHANNELS 3 Zrotation Xrotation Yrotation
                    JOINT RightHandIndex3
                    {
                      OFFSET -2.2628 -0.552002 0.3989
                      CHANNELS 3 Zrotation Xrotation Yrotation
                      End Site
                      {
                        OFFSET -1.6102 -0.4807 0.2612
                      }
                    }
                  }
                }
                JOINT RightHandMiddle1
                {
                  OFFSET -8.9937 0.894989 0.2143
                  CHANNELS 3 Zrotation Xrotation Yrotation
                  JOINT RightHandMiddle2
                  {
                    OFFSET -4.0984 0.0113983 -0.0242
                    CHANNELS 3 Zrotation Xrotation Yrotation
                    JOINT RightHandMiddle3
                    {
                      OFFSET -2.2716 0.00691223 -0.0138001
                      CHANNELS 3 Zrotation Xrotation Yrotation
                      End Site
                      {
                        OFFSET -2.0404 -0.1441 0.0027
                      }
                    }
                  }
                }
                JOINT RightHandRing1
                {
                  OFFSET -8.5234 0.597198 -2.0164
                  CHANNELS 3 Zrotation Xrotation Yrotation
                  JOINT RightHandRing2
                  {
                    OFFSET -3.7188 -0.188309 -0.2328
                    CHANNELS 3 Zrotation Xrotation Yrotation
                    JOINT RightHandRing3
                    {
                      OFFSET -2.1191 -0.106598 -0.1332
                      CHANNELS 3 Zrotation Xrotation Yrotation
                      End Site
                      {
                        OFFSET -1.8737 -0.2304 -0.0886
                      }
                    }
                  }
                }
                JOINT RightHandPinky1
                {
                  OFFSET -7.9094 -0.601105 -3.4825
                  CHANNELS 3 Zrotation Xrotation Yrotation
                  JOINT RightHandPinky2
                  {
                    OFFSET -2.2874 -0.477005 -0.6314
                    CHANNELS 3 Zrotation Xrotation Yrotation
                    JOINT RightHandPinky3
                    {
                      OFFSET -1.6774 -0.349396 -0.4633
                      CHANNELS 3 Zrotation Xrotation Yrotation
                      End Site
                      {
                        OFFSET -1.4888 -0.4091 -0.3416
                      }
                    }
                  }
                }
                JOINT RightHandThumb1
                {
                  OFFSET -1.833 -1.38751 1.3896
                  CHANNELS 3 Zrotation Xrotation Yrotation
                  JOINT RightHandThumb2
                  {
                    OFFSET -3.41299 -1.12099 2.5732
                    CHANNELS 3 Zrotation Xrotation Yrotation
                    JOINT RightHandThumb3
                    {
                      OFFSET -2.24741 -0.804108 1.6192
                      CHANNELS 3 Zrotation Xrotation Yrotation
                      End Site
                      {
                        OFFSET -1.6527 -0.5689 1.1317
                      }
                    }
                  }
                }
              }
            }
          }
        }
      }
    }
  }
  JOINT RightUpLeg
  {
    OFFSET -9.1966 3.8861 -0.7581
    CHANNELS 3 Zrotation Xrotation Yrotation
    JOINT RightLeg
    {
      OFFSET -0.7359 -41.0265 0
      CHANNELS 3 Zrotation Xrotation Yrotation
      JOINT RightFoot
      {
        OFFSET 0 -40.2855 0
        CHANNELS 3 Zrotation Xrotation Yrotation
        JOINT RightToeBase
        {
          OFFSET 0 -5.6122 11.7359
          CHANNELS 3 Zrotation Xrotation Yrotation
          End Site
          {
            OFFSET 0 0 7.8731
          }
        }
      }
    }
  }
  JOINT LeftUpLeg
  {
    OFFSET 9.1965 3.8864 -0.7581
    CHANNELS 3 Zrotation Xrotation Yrotation
    JOINT LeftLeg
    {
      OFFSET 0.7359 -41.0268 0
      CHANNELS 3 Zrotation Xrotation Yrotation
      JOINT LeftFoot
      {
        OFFSET 0 -40.2855 0
        CHANNELS 3 Zrotation Xrotation Yrotation
        JOINT LeftToeBase
        {
          OFFSET 0 -5.6122 11.7359
          CHANNELS 3 Zrotation Xrotation Yrotation
          End Site
          {
            OFFSET 0 0 7.8731
          }
        }
      }
    }
  }
}
MOTION
Frames:	6
Frame Time:	0.0333333
5.84602e-005 68.8428 3.50346 0 0 -0 0 0 -0 0 0 -0 0 0 -0 0 0 -0 0 0 -0 0 0 -0 0 0 -0 0 0 -0 0 0 -0 0 0 -0 0 0 -0 0 0 -0 0 0 -0 -0.0146107 -8.87603e-005 -2.63497e-007 2.99804e-018 -2.42657e-020 -1.42182e-022 0 0 -0 -0.0187562 -0.001176 5.858e-005 5.06224e-018 3.88251e-019 1.21329e-020 0 0 -0 -0.012269 -0.00324817 0.000675346 -1.74678e-018 3.88251e-019 -0 0 0 -0 0 0 -0 0 0 -0 0 0 -0 0 0 -0 0 0 -0 0 0 -0 0 0 -0 0 0 -0 0 0 -0 0 0 -0 0.0149955 -9.10982e-005 2.64101e-007 -9.69331e-018 1.21329e-020 -4.7394e-023 0 0 -0 0.0189956 -0.00119102 -5.96516e-005 -5.41541e-019 0 2.42657e-020 0 0 -0 0.0122698 -0.00324857 -0.000673756 -2.00796e-019 0 -1.94126e-019 0 0 -0 0 0 -0 0 0 -0 3.39842 1.33031 -0.0637918 -5.65207e-008 0.834868 -0.000436188 -3.39935 -2.16518 -0.0642563 -8.89002e-024 -1.18485e-023 -1.48106e-024 -3.39844 1.35642 0.0640283 -3.18788e-007 0.782166 -0.000588827 3.39931 -2.13858 0.0634662 1.1399e-023 0 -0 
-0.0439598 67.2812 -65.4545 0 39.9976 -0 -0.713776 12.4237 -0.024395 -1.47616 24.8467 0.118575 -1.47616 24.8467 0.118575 -2.6421e-006 -40.0013 -2.54011e-006 1.42051e-006 -1.15932 1.5691e-007 -46.0244 -5.43172 52.7174 -46.4237 36.4979 31.0779 2.85809 -0.563838 -3.31148 -5.5706 0.07318 13.1075 -9.53003e-007 -5.94781e-007 -1.33845e-006 -1.39851e-007 -1.40366e-007 1.18918e-006 -9.42523e-006 -1.30741e-007 -1.9756e-006 -9.53003e-007 -5.94781e-007 -1.33845e-006 -0.0145922 -8.82001e-005 -7.18766e-007 -6.37621e-006 2.22556e-007 -1.4997e-006 -9.53003e-007 -5.94781e-007 -1.33845e-006 -0.0187762 -0.00117757 5.88957e-005 -9.42506e-006 -1.30401e-007 -1.97553e-006 -9.53003e-007 -5.94781e-007 -1.33845e-006 -0.0123666 -0.00327336 0.000681091 -9.42516e-006 -1.30438e-007 -1.97536e-006 -9.53003e-007 -5.94781e-007 -1.33845e-006 -1.39851e-007 -1.40366e-007 1.18918e-006 -9.42523e-006 -1.30741e-007 -1.9756e-006 45.1712 -5.23046 -50.5803 45.2905 36.5982 -30.3369 0.437077 -0.133133 11.5941 7.19028 0.191747 13.127 1.76437e-006 -5.40193e-007 -9.09475e-007 9.46677e-007 1.8044e-006 -2.61819e-006 -3.18055e-015 -3.18055e-015 -3.18055e-015 1.76437e-006 -5.40193e-007 -9.09475e-007 0.0150217 -8.89987e-005 3.34493e-006 3.97569e-015 2.70347e-014 -9.54166e-015 1.76437e-006 -5.40193e-007 -9.09475e-007 0.0190144 -0.00119674 -6.40957e-005 1.76612e-006 -5.40454e-007 -9.0941e-007 1.76437e-006 -5.40193e-007 -9.09475e-007 0.0121955 -0.00322657 -0.000677725 1.84273e-006 -1.35278e-006 -7.10098e-007 1.76437e-006 -5.40193e-007 -9.09475e-007 9.46677e-007 1.8044e-006 -2.61819e-006 -3.18055e-015 -3.18055e-015 -3.18055e-015 -7.69471 -41.7137 0.263852 -0.0553722 12.2353 0.116304 -4.33653 -7.83238 -4.18878 2.00606e-009 9.69142e-009 -1.0625e-007 14.9814 -38.1772 -0.66794 -0.919999 12.0989 0.256206 7.53459 -5.3618 9.32182 -6.0632e-009 1.78983e-008 1.05029e-007 
-0.043294 67.2812 -65.4546 0 39.9976 -0 -0.712796 12.4903 -0.0267995 -1.47415 24.9798 0.114401 -1.47415 24.9798 0.1144 1.00366e-005 -40.6118 6.56325e-006 7.82241e-007 -2.3118 6.56695e-007 -45.9422 -5.55285 52.4048 -46.5957 36.4154 31.1436 2.85812 -0.563834 -3.31148 -5.5706 0.0731876 13.1075 -3.97569e-015 1.59028e-015 7.95139e-016 -3.77691e-015 1.59028e-015 -0 -3.57812e-015 3.18055e-015 7.95139e-016 -3.97569e-015 1.59028e-015 7.95139e-016 -0.0146516 -8.9883e-005 -1.50716e-006 5.96354e-016 1.59028e-015 -7.95139e-016 -3.97569e-015 1.59028e-015 7.95139e-016 -0.0188193 -0.00118094 6.00278e-005 1.41137e-014 2.70347e-014 4.77083e-015 -3.97569e-015 1.59028e-015 7.95139e-016 -0.0121569 -0.00321789 0.000669436 -3.97569e-016 -4.77083e-015 -2.38542e-015 -3.97569e-015 1.59028e-015 7.95139e-016 -3.77691e-015 1.59028e-015 -0 -3.57812e-015 3.18055e-015 7.95139e-016 45.0894 -5.3605 -50.295 45.2905 36.5982 -30.3369 0.437082 -0.133134 11.5941 7.19028 0.191745 13.127 -4.77083e-015 -1.59028e-015 6.36111e-015 1.39277e-006 -2.25756e-006 6.02525e-007 1.75108e-006 -5.37032e-007 -9.1416e-007 -4.77083e-015 -1.59028e-015 6.36111e-015 0.0149932 -8.93961e-005 6.5725e-006 4.77083e-015 1.59028e-015 3.18055e-015 -4.77083e-015 -1.59028e-015 6.36111e-015 0.0190538 -0.00119431 -5.92119e-005 -7.95139e-016 -4.77083e-015 -0 -4.77083e-015 -1.59028e-015 6.36111e-015 0.0121644 -0.00321874 -0.000668303 5.56597e-015 -4.77083e-015 -0 -4.77083e-015 -1.59028e-015 6.36111e-015 1.39277e-006 -2.25756e-006 6.02525e-007 1.75108e-006 -5.37032e-007 -9.1416e-007 -7.88412 -41.7223 -0.442418 -0.0553752 12.2366 0.116686 -4.38991 -7.88531 -3.58575 8.32411e-016 3.97569e-016 -3.97569e-016 15.1698 -38.0523 -0.416345 -1.21959 11.8405 0.322854 7.69135 -5.24482 9.13439 1.68653e-006 7.08056e-010 -7.90634e-009 
-0.0426273 67.2813 -65.4546 0 39.9976 -0 -0.711781 12.5569 -0.0292037 -1.47206 25.113 0.110216 -1.47206 25.1131 0.110215 -6.72727e-007 -41.2224 -1.01538e-006 7.5487e-007 -3.46617 2.32664e-008 -45.8607 -5.67443 52.0923 -46.7674 36.3328 31.2088 2.85812 -0.563833 -3.31148 -5.5706 0.0731788 13.1075 -2.91166e-006 -2.01026e-007 -1.66162e-006 1.5416e-007 -7.86607e-007 -9.97315e-007 3.1381e-006 7.44173e-007 -3.845e-007 -2.91166e-006 -2.01026e-007 -1.66162e-006 -0.0146317 -8.96928e-005 -8.52065e-007 8.75318e-008 4.02784e-007 -8.56792e-007 -2.91166e-006 -2.01026e-007 -1.66162e-006 -0.0187065 -0.0011739 5.71294e-005 8.7527e-008 4.02815e-007 -8.56778e-007 -2.91166e-006 -2.01026e-007 -1.66162e-006 -0.0121611 -0.00321801 0.000667875 8.7509e-008 4.02767e-007 -8.56803e-007 -2.91166e-006 -2.01026e-007 -1.66162e-006 1.5416e-007 -7.86607e-007 -9.97315e-007 3.1381e-006 7.44173e-007 -3.845e-007 45.0082 -5.49094 -50.0098 45.2905 36.5982 -30.3369 0.437065 -0.133136 11.594 7.19026 0.191747 13.127 -4.71906e-007 -9.06038e-007 1.30698e-006 -4.71906e-007 -9.06038e-007 1.30698e-006 4.41814e-006 -4.23348e-006 7.55484e-008 -4.71906e-007 -9.06038e-007 1.30698e-006 0.0149627 -9.17133e-005 -1.35656e-006 4.41874e-006 -4.23347e-006 7.60976e-008 -4.71906e-007 -9.06038e-007 1.30698e-006 0.0190253 -0.00118888 -5.99832e-005 4.41891e-006 -4.23351e-006 7.6203e-008 -4.71906e-007 -9.06038e-007 1.30698e-006 0.012246 -0.00324942 -0.000674283 4.41866e-006 -4.23358e-006 7.58486e-008 -4.71906e-007 -9.06038e-007 1.30698e-006 -4.71906e-007 -9.06038e-007 1.30698e-006 4.41814e-006 -4.23348e-006 7.55484e-008 -8.07379 -41.729 -1.14913 -0.0553756 12.2376 0.117106 -4.44275 -7.93862 -2.98243 8.51761e-007 -3.07751e-009 -9.05307e-008 15.357 -37.9255 -0.166009 -1.51862 11.5791 0.388094 7.84833 -5.12702 8.94656 -6.70898e-015 1.59028e-015 -1.19271e-015 
-0.0419602 67.2813 -65.4547 0 39.9976 -0 -0.710731 12.6235 -0.0316068 -1.46989 25.2464 0.10602 -1.46989 25.2464 0.106022 1.56882e-006 -41.8334 1.79264e-006 4.93186e-007 -4.62221 1.56632e-008 -45.7798 -5.79647 51.7798 -46.9388 36.2499 31.2737 2.85813 -0.563832 -3.31148 -5.57062 0.073178 13.1075 0 0 -0 -1.98785e-015 3.18055e-015 -7.95139e-016 -1.98785e-016 3.18055e-015 -7.95139e-016 0 0 -0 -0.0146452 -8.84697e-005 4.08502e-007 3.97569e-016 0 -0 0 0 -0 -0.0187071 -0.00117193 5.88039e-005 -3.04807e-006 -3.35586e-007 -4.70711e-007 0 0 -0 -0.0122139 -0.00323235 0.000672001 7.95139e-015 1.59028e-015 -0 0 0 -0 -1.98785e-015 3.18055e-015 -7.95139e-016 -1.98785e-016 3.18055e-015 -7.95139e-016 44.9276 -5.62181 -49.7246 45.2904 36.5982 -30.3368 0.437076 -0.133137 11.594 7.19026 0.191748 13.127 1.72455e-006 -5.30439e-007 -9.23636e-007 -3.18055e-015 -3.97569e-015 -1.27222e-014 3.18055e-015 7.95139e-016 -9.54166e-015 1.72455e-006 -5.30439e-007 -9.23636e-007 0.0150565 -9.16875e-005 1.0014e-006 1.72595e-006 -5.30569e-007 -9.23568e-007 1.72455e-006 -5.30439e-007 -9.23636e-007 0.018924 -0.00118715 -5.61627e-005 -3.97569e-015 1.59028e-015 -0 1.72455e-006 -5.30439e-007 -9.23636e-007 0.0122655 -0.00324392 -0.000672987 -3.97569e-015 1.59028e-015 -3.18055e-015 1.72455e-006 -5.30439e-007 -9.23636e-007 -3.18055e-015 -3.97569e-015 -1.27222e-014 3.18055e-015 7.95139e-016 -9.54166e-015 -8.26368 -41.7338 -1.85622 -0.0553754 12.2382 0.117565 -4.49503 -7.99231 -2.37887 -1.36998e-009 -2.02322e-007 -1.26415e-007 15.5428 -37.7974 0.0830623 -1.81708 11.3162 0.451962 8.00549 -5.00923 8.75839 -2.83616e-006 3.02203e-008 1.04582e-008 
-0.0412927 67.2813 -65.4547 0 39.9976 -0 -0.709647 12.6902 -0.0340092 -1.46765 25.3799 0.101815 -1.46765 25.3798 0.101815 -4.11286e-006 -42.4445 -2.23776e-006 -6.59745e-007 -5.77967 -2.82182e-007 -45.6996 -5.91897 51.4674 -47.1099 36.167 31.3382 2.85812 -0.563838 -3.31148 -5.5706 0.0731785 13.1075 5.96354e-016 0 -0 2.38542e-015 0 -0 2.78299e-015 3.18055e-015 1.59028e-015 5.96354e-016 0 -0 -0.0146251 -8.83011e-005 -6.61264e-007 -3.97569e-016 1.59028e-015 2.38542e-015 5.96354e-016 0 -0 -0.0187534 -0.00117651 6.05216e-005 9.93923e-016 -1.59028e-015 -0 5.96354e-016 0 -0 -0.0122474 -0.00324026 0.00067411 5.36719e-015 -1.59028e-015 -0 5.96354e-016 0 -0 2.38542e-015 0 -0 2.78299e-015 3.18055e-015 1.59028e-015 44.8477 -5.75309 -49.4396 45.2904 36.5982 -30.3368 0.43707 -0.133139 11.594 7.19026 0.191749 13.127 -3.97569e-015 -6.36111e-015 -1.27222e-014 -5.56597e-015 -7.95139e-015 -1.27222e-014 -7.95139e-016 -6.36111e-015 -1.27222e-014 -3.97569e-015 -6.36111e-015 -1.27222e-014 0.0149884 -9.01566e-005 -1.1561e-006 -6.36111e-015 0 -9.54166e-015 -3.97569e-015 -6.36111e-015 -1.27222e-014 0.0190202 -0.00119242 -5.97679e-005 -2.38542e-015 -4.77083e-015 -3.18055e-015 -3.97569e-015 -6.36111e-015 -1.27222e-014 0.0122892 -0.00325502 -0.000674678 2.38542e-015 2.38542e-015 1.59028e-014 -3.97569e-015 -6.36111e-015 -1.27222e-014 -5.56597e-015 -7.95139e-015 -1.27222e-014 -7.95139e-016 -6.36111e-015 -1.27222e-014 -8.45371 -41.7369 -2.56361 -0.0553727 12.239 0.118048 -4.54679 -8.04665 -1.77509 -1.94291e-007 -1.09639e-007 -1.23002e-007 15.7273 -37.6675 0.330847 -2.11499 11.0506 0.514397 8.16285 -4.89072 8.56982 -1.68116e-008 4.55893e-007 1.38507e-007 
